<?xml version="1.0" encoding="utf-8"?>
<!-- Generator: Adobe Illustrator 22.0.0, SVG Export Plug-In . SVG Version: 6.00 Build 0)  -->
<svg version="1.1" id="Capa_1" xmlns="http://www.w3.org/2000/svg" xmlns:xlink="http://www.w3.org/1999/xlink" x="0px" y="0px"
	 viewBox="0 0 549.3 493.3" style="enable-background:new 0 0 549.3 493.3;" xml:space="preserve">
<style type="text/css">
	.st0{fill:#E6E6E6;}
	.st1{opacity:0.59;fill:#D84F9D;enable-background:new    ;}
	.st2{opacity:0.2;}
	.st3{fill:#D84F9D;}
	.st4{opacity:0.52;}
	.st5{opacity:0.12;fill:#D84F9D;enable-background:new    ;}
	.st6{opacity:0.39;fill:#D96AA9;enable-background:new    ;}
	.st7{opacity:0.77;fill:#ECA5C9;enable-background:new    ;}
	.st8{opacity:0.24;fill:#D84F9D;enable-background:new    ;}
	.st9{fill:none;}
</style>
<path class="st0" d="M275.4,493.1c-8.1,0-15.7-3.6-20.8-9.9L7.9,181.7c-7.6-9.2-8.3-22.4-1.7-32.4l88-134.8
	c5-7.6,13.5-12.3,22.6-12.3h317.3c9.1,0,17.6,4.6,22.6,12.3l88,134.8c6.5,10,5.8,23.1-1.7,32.4L296.2,483.2
	C291.1,489.4,283.5,493.1,275.4,493.1z"/>
<path class="st1" d="M275.4,493.1c-8.1,0-15.7-3.6-20.8-9.9L7.9,181.7c-7.6-9.2-8.3-22.4-1.7-32.4l88-134.8
	c5-7.6,13.5-12.3,22.6-12.3h317.3c9.1,0,17.6,4.6,22.6,12.3l88,134.8c6.5,10,5.8,23.1-1.7,32.4L296.2,483.2
	C291.1,489.4,283.5,493.1,275.4,493.1z"/>
<g class="st2">
	<path class="st3" d="M104.5,5.2c-4.1,2.1-7.7,5.2-10.3,9.2l-88,134.8c-3.3,5.1-4.8,11-4.4,16.8h207.8L104.5,5.2z"/>
	<path class="st3" d="M341.3,166.1h207.8c0.4-5.8-1.1-11.7-4.4-16.8l-88-134.8c-2.6-4-6.2-7.1-10.3-9.2L341.3,166.1z"/>
</g>
<g class="st4">
	<path class="st3" d="M274.1,3.6H108.4c-0.3,4.6,0.8,9.3,3.5,13.3l70.2,106.6c2.1,3.2,4.9,5.6,8.2,7.3L274.1,3.6z"/>
</g>
<polygon class="st5" points="275.4,493.1 382.6,166.1 168.9,166.1 "/>
<polygon class="st6" points="279.7,490.7 548.3,167.4 392.4,166.1 "/>
<polygon class="st7" points="275.2,2.2 168.2,166.1 382.6,166.1 275.6,2.2 "/>
<path class="st8" d="M79.8,181.7c-7.6-9.2-8.3-22.4-1.7-32.4l88.1-134.8c5-7.6,13.5-12.3,22.6-12.3h-71.9c-9.1,0-17.6,4.6-22.5,12.3
	l-88,134.8c-6.5,10-5.8,23.1,1.7,32.4l246.7,301.5C259.7,489.4,79.8,181.7,79.8,181.7z"/>
<rect x="767" y="-309.3" class="st9" width="568" height="506"/>
</svg>
